<svg
 xmlns="http://www.w3.org/2000/svg"
 xmlns:xlink="http://www.w3.org/1999/xlink"
 width="16px" height="15px">
<path fill-rule="evenodd"  fill="rgb(254, 201, 68)"
 d="M15.131,5.837 C15.100,5.743 15.019,5.675 14.921,5.661 L10.214,4.982 L8.109,0.746 C8.065,0.657 7.975,0.602 7.876,0.602 C7.777,0.602 7.686,0.657 7.643,0.746 L5.537,4.982 L0.831,5.661 C0.733,5.675 0.651,5.743 0.620,5.837 C0.590,5.931 0.615,6.033 0.686,6.102 L4.092,9.399 L3.288,14.055 C3.271,14.152 3.312,14.250 3.391,14.308 C3.472,14.366 3.578,14.374 3.665,14.327 L7.876,12.129 L12.086,14.327 C12.124,14.347 12.165,14.357 12.207,14.357 C12.261,14.357 12.314,14.341 12.360,14.308 C12.440,14.250 12.480,14.152 12.463,14.055 L11.659,9.399 L15.065,6.102 C15.136,6.033 15.162,5.930 15.131,5.837 Z"/>
</svg>
